<svg xmlns="http://www.w3.org/2000/svg" viewBox="0 0 64 64"><rect width="64" height="64" rx="10" fill="#522F26"/><g transform="translate(21.50 12.00) scale(0.8078)"><path fill="#E9E7DA" d="M0.415 45.713L0.415 3.803C0.415 2.651 0.277 1.429 0.000 0.137L0.207 0.000C0.806 0.184 1.913 0.345 3.527 0.484C5.140 0.345 6.247 0.184 6.846 0.000L7.054 0.137C6.778 1.429 6.639 2.651 6.639 3.803L6.639 39.420C6.639 40.896 6.938 41.921 7.539 42.498C8.137 43.075 9.198 43.362 10.720 43.362L17.982 43.223C21.439 43.132 24.067 42.902 25.865 42.532L26.004 42.739C25.543 43.707 25.127 44.861 24.759 46.197L24.344 47.926L24.067 49.311C22.961 49.078 18.765 48.964 11.480 48.964L7.953 48.964C3.618 48.964 1.038 49.148 0.207 49.518L0.000 49.378C0.277 48.089 0.415 46.867 0.415 45.713"/></g></svg>